<svg width="10" height="19" viewBox="0 0 10 19" fill="none" xmlns="http://www.w3.org/2000/svg">
<path d="M10 9.28036C10 9.14494 9.97444 9.01842 9.92332 8.90081C9.87219 8.7832 9.79891 8.6745 9.70348 8.57471L1.60531 0.277983C1.42127 0.092661 1.19632 0 0.930471 0C0.760054 0 0.603272 0.0427668 0.460123 0.1283C0.316973 0.213833 0.204499 0.329659 0.1227 0.475779C0.0409 0.621899 0 0.787619 0 0.972941C0 1.23667 0.0886162 1.46832 0.265848 1.6679L7.70961 9.28036L0.265848 16.8928C0.0886162 17.0924 0 17.3241 0 17.5878C0 17.7732 0.0409 17.9389 0.1227 18.085C0.204499 18.2311 0.316973 18.3469 0.460123 18.4324C0.603272 18.5179 0.760054 18.5607 0.930471 18.5607C1.19632 18.5607 1.42127 18.4645 1.60531 18.2721L9.70348 9.98601C9.79891 9.88623 9.87219 9.77753 9.92332 9.65991C9.97444 9.54231 10 9.41579 10 9.28036Z" fill="#BBBBBB"/>
</svg>
