<svg width="10" height="18" viewBox="0 0 10 18" fill="none" xmlns="http://www.w3.org/2000/svg">
<path d="M0 8.87525C0 9.00477 0.0238582 9.12577 0.0715747 9.23824C0.119291 9.35072 0.190866 9.45467 0.286299 9.5501L8.39469 17.4745C8.57873 17.6585 8.80027 17.7505 9.0593 17.7505C9.23654 17.7505 9.39503 17.7096 9.53477 17.6278C9.67451 17.546 9.78698 17.4353 9.87219 17.2956C9.9574 17.1558 10 16.9973 10 16.8201C10 16.5678 9.90798 16.3463 9.72393 16.1554L2.28016 8.87525L9.72393 1.59509C9.90798 1.40423 10 1.18269 10 0.930471C10 0.753238 9.9574 0.594751 9.87219 0.45501C9.78698 0.315269 9.67451 0.204499 9.53477 0.1227C9.39503 0.0409 9.23654 0 9.0593 0C8.80027 0 8.57873 0.0886162 8.39469 0.265848L0.286299 8.20041C0.190866 8.29584 0.119291 8.3998 0.0715747 8.51227C0.0238582 8.62475 0 8.74574 0 8.87525Z" fill="black"/>
</svg>
